<svg width="20" height="20" viewBox="0 0 20 20" fill="none" xmlns="http://www.w3.org/2000/svg">
<path d="M3.625 14.5V15.625M3.625 15.625V16.75M3.625 15.625H4.75M3.625 15.625H2.5M10.75 2.5L11.0169 4.59976C11.3536 7.24897 13.4007 9.35678 16.0389 9.77074L17.5 10L16.0389 10.2293C13.4007 10.6432 11.3536 12.751 11.0169 15.4002L10.75 17.5L10.4831 15.4002C10.1464 12.751 8.09933 10.6432 5.46109 10.2293L4 10L5.46109 9.77074C8.09933 9.35678 10.1464 7.24897 10.4831 4.59976L10.75 2.5ZM4.75 2.5L4.80595 2.83965C4.96271 3.79136 5.70864 4.53729 6.66035 4.69405L7 4.75L6.66035 4.80595C5.70864 4.96271 4.96271 5.70864 4.80595 6.66035L4.75 7L4.69405 6.66035C4.53729 5.70864 3.79136 4.96271 2.83965 4.80595L2.5 4.75L2.83965 4.69405C3.79136 4.53729 4.53729 3.79136 4.69405 2.83965L4.75 2.5Z" stroke="white" stroke-width="2" stroke-linecap="round" stroke-linejoin="round"/>
</svg>
